<?xml version="1.0"?>
<svg width="16" height="16" xmlns="http://www.w3.org/2000/svg" xmlns:svg="http://www.w3.org/2000/svg" class="bi bi-list">
 <g class="layer">
  <title>Layer 1</title>
  <path d="m2.5,12a0.5,0.5 0 0 1 0.5,-0.5l10,0a0.5,0.5 0 0 1 0,1l-10,0a0.5,0.5 0 0 1 -0.5,-0.5zm0,-4a0.5,0.5 0 0 1 0.5,-0.5l10,0a0.5,0.5 0 0 1 0,1l-10,0a0.5,0.5 0 0 1 -0.5,-0.5zm0,-4a0.5,0.5 0 0 1 0.5,-0.5l10,0a0.5,0.5 0 0 1 0,1l-10,0a0.5,0.5 0 0 1 -0.5,-0.5z" fill="#bfbfbf" fill-rule="evenodd" id="svg_1"/>
 </g>
</svg>